solid Red Ryder 3-8 Dovetail Rail - 05-08-2021  - final
facet normal 0.6468614419594372 5.405826098125743e-15 -0.7626075497306316
  outer loop
    vertex 4.9688040659057195 321.99999999999994 74.44439638586151
    vertex 7.553173342194867 185.99999999999994 76.63651845075034
    vertex 4.968804065905685 185.99999999999994 74.44439638586051
  endloop
endfacet
facet normal 0.6468614419594372 5.405826098125743e-15 -0.7626075497306316
  outer loop
    vertex 7.553173342194867 185.99999999999994 76.63651845075034
    vertex 4.9688040659057195 321.99999999999994 74.44439638586151
    vertex 7.553173342194899 321.99999999999994 76.63651845075134
  endloop
endfacet
facet normal 0.0 0.0 1.0
  outer loop
    vertex 24.04849370610245 186.00000000000014 80.18859999999998
    vertex 18.762499999999996 322.0 80.18859999999998
    vertex 18.762499999999996 186.00000000000014 80.18859999999998
  endloop
endfacet
facet normal 0.0 0.0 1.0
  outer loop
    vertex 18.762499999999996 322.0 80.18859999999998
    vertex 24.04849370610245 186.00000000000014 80.18859999999998
    vertex 24.04849370610245 322.0 80.18859999999998
  endloop
endfacet
facet normal 0.0 1.0 0.0
  outer loop
    vertex 25.382981118307356 322.0 82.49999999999999
    vertex 28.0 322.0 80.18859999999998
    vertex 24.04849370610245 322.0 80.18859999999998
  endloop
endfacet
facet normal 0.0 1.0 0.0
  outer loop
    vertex 28.0 322.0 80.18859999999998
    vertex 25.382981118307356 322.0 82.49999999999999
    vertex 28.0 322.0 82.49999999999999
  endloop
endfacet
facet normal 0.0 0.0 1.0
  outer loop
    vertex 2.6170125877950987 186.00000000000003 82.49999999999999
    vertex 0.0 322.0 82.49999999999999
    vertex 0.0 186.0 82.49999999999999
  endloop
endfacet
facet normal 0.0 0.0 1.0
  outer loop
    vertex 0.0 322.0 82.49999999999999
    vertex 2.6170125877950987 186.00000000000003 82.49999999999999
    vertex 2.6170125877950987 322.0 82.49999999999999
  endloop
endfacet
facet normal -1.0 -2.0195350286208527e-34 2.444176375597274e-33
  outer loop
    vertex 0.0 322.0 82.49999999999999
    vertex 0.0 186.0 65.0
    vertex 0.0 186.0 82.49999999999999
  endloop
endfacet
facet normal -1.0 -2.0195350286208527e-34 2.444176375597274e-33
  outer loop
    vertex 0.0 186.0 65.0
    vertex 0.0 322.0 82.49999999999999
    vertex -7.826979293989726e-32 322.0 65.0
  endloop
endfacet
facet normal -1.0 -2.0195350286208527e-34 2.444176375597274e-33
  outer loop
    vertex -7.826979293989726e-32 322.0 65.0
    vertex 0.0 322.0 82.49999999999999
    vertex 0.0 322.0 80.18859999999998
  endloop
endfacet
facet normal -0.4096560515664764 6.717339753542098e-15 -0.9122400558049207
  outer loop
    vertex 17.355373952340226 321.9999999999999 78.02478495019574
    vertex 20.44682665780494 185.99999999999994 76.63651845075043
    vertex 17.35537395234021 185.99999999999994 78.02478495019474
  endloop
endfacet
facet normal -0.4096560515664764 6.717339753542098e-15 -0.9122400558049207
  outer loop
    vertex 20.44682665780494 185.99999999999994 76.63651845075043
    vertex 17.355373952340226 321.9999999999999 78.02478495019574
    vertex 20.446826657804962 321.9999999999999 76.63651845075142
  endloop
endfacet
facet normal 0.1402286383959642 7.183550754056348e-15 -0.990119148877353
  outer loop
    vertex 10.64462604765958 321.9999999999999 78.0247849501957
    vertex 12.068148347421847 316.5176380902049 78.2263956291208
    vertex 11.999999999999979 315.9999999999999 78.21674391197267
  endloop
endfacet
facet normal 0.1402286383959642 7.183550754056348e-15 -0.990119148877353
  outer loop
    vertex 12.068148347421847 316.5176380902049 78.2263956291208
    vertex 10.64462604765958 321.9999999999999 78.0247849501957
    vertex 13.999999999999885 321.9999999999999 78.50000000000001
  endloop
endfacet
facet normal 0.1402286383959642 7.183550754056348e-15 -0.990119148877353
  outer loop
    vertex 12.068148347421847 316.5176380902049 78.2263956291208
    vertex 13.999999999999885 321.9999999999999 78.50000000000001
    vertex 12.267949192431063 316.99999999999994 78.25469303199174
  endloop
endfacet
facet normal 0.1402286383959642 7.183550754056348e-15 -0.990119148877353
  outer loop
    vertex 12.267949192431063 316.99999999999994 78.25469303199174
    vertex 13.999999999999885 321.9999999999999 78.50000000000001
    vertex 12.585786437626906 317.4142135623731 78.2997076993435
  endloop
endfacet
facet normal 0.1402286383959642 7.183550754056348e-15 -0.990119148877353
  outer loop
    vertex 12.585786437626906 317.4142135623731 78.2997076993435
    vertex 13.999999999999885 321.9999999999999 78.50000000000001
    vertex 12.999999999999998 317.7320508075689 78.35837195598633
  endloop
endfacet
facet normal 0.1402286383959642 7.183550754056348e-15 -0.990119148877353
  outer loop
    vertex 12.999999999999998 317.7320508075689 78.35837195598633
    vertex 13.999999999999885 321.9999999999999 78.50000000000001
    vertex 13.482361909794951 317.9318516525782 78.42668792977732
  endloop
endfacet
facet normal 0.1402286383959642 7.183550754056348e-15 -0.990119148877353
  outer loop
    vertex 13.482361909794951 317.9318516525782 78.42668792977732
    vertex 13.999999999999885 321.9999999999999 78.50000000000001
    vertex 13.999999999999941 318.0 78.49999999999999
  endloop
endfacet
facet normal 0.1402286383959642 7.183550754056348e-15 -0.990119148877353
  outer loop
    vertex 10.64462604765958 321.9999999999999 78.0247849501957
    vertex 13.999999999999865 185.99999999999994 78.49999999999902
    vertex 10.644626047659548 185.99999999999994 78.0247849501947
  endloop
endfacet
facet normal 0.1402286383959642 7.183550754056348e-15 -0.990119148877353
  outer loop
    vertex 13.999999999999865 185.99999999999994 78.49999999999902
    vertex 10.64462604765958 321.9999999999999 78.0247849501957
    vertex 11.999999999999979 315.9999999999999 78.21674391197267
  endloop
endfacet
facet normal 0.1402286383959642 7.183550754056348e-15 -0.990119148877353
  outer loop
    vertex 13.999999999999865 185.99999999999994 78.49999999999902
    vertex 11.999999999999979 315.9999999999999 78.21674391197267
    vertex 12.068148347421852 315.48236190979503 78.2263956291208
  endloop
endfacet
facet normal 0.1402286383959642 7.183550754056348e-15 -0.990119148877353
  outer loop
    vertex 13.999999999999865 185.99999999999994 78.49999999999902
    vertex 12.068148347421852 315.48236190979503 78.2263956291208
    vertex 12.267949192431152 314.99999999999994 78.25469303199172
  endloop
endfacet
facet normal 0.1402286383959642 7.183550754056348e-15 -0.990119148877353
  outer loop
    vertex 13.999999999999865 185.99999999999994 78.49999999999902
    vertex 12.267949192431152 314.99999999999994 78.25469303199172
    vertex 12.58578643762692 314.58578643762684 78.29970769934349
  endloop
endfacet
facet normal 0.1402286383959642 7.183550754056348e-15 -0.990119148877353
  outer loop
    vertex 13.999999999999865 185.99999999999994 78.49999999999902
    vertex 12.58578643762692 314.58578643762684 78.29970769934349
    vertex 13.000000000000007 314.26794919243116 78.35837195598633
  endloop
endfacet
facet normal 0.1402286383959642 7.183550754056348e-15 -0.990119148877353
  outer loop
    vertex 13.999999999999865 185.99999999999994 78.49999999999902
    vertex 13.000000000000007 314.26794919243116 78.35837195598633
    vertex 13.482361909794966 314.06814834742187 78.42668792977727
  endloop
endfacet
facet normal 0.1402286383959642 7.183550754056348e-15 -0.990119148877353
  outer loop
    vertex 13.999999999999865 185.99999999999994 78.49999999999902
    vertex 13.482361909794966 314.06814834742187 78.42668792977727
    vertex 13.999999999999941 314.0 78.49999999999996
  endloop
endfacet
facet normal 0.9539773856037139 1.913917263183435e-15 -0.2998785550130304
  outer loop
    vertex 2.0785490343588107 186.00000000000003 68.38794831023127
    vertex 3.0947951028214744 321.99999999999994 71.62084293145618
    vertex 3.0947951028214353 185.99999999999994 71.62084293145519
  endloop
endfacet
facet normal 0.9539773856037139 1.913917263183435e-15 -0.2998785550130304
  outer loop
    vertex 3.0947951028214744 321.99999999999994 71.62084293145618
    vertex 2.0785490343588107 186.00000000000003 68.38794831023127
    vertex 2.0785490343588497 322.0 68.38794831023226
  endloop
endfacet
facet normal 0.0 0.0 1.0
  outer loop
    vertex 12.250000000000005 312.9689110867545 79.49999999999999
    vertex 12.000000000000012 316.0000000000001 79.49999999999999
    vertex 11.525126265847087 313.5251262658471 79.49999999999999
  endloop
endfacet
facet normal 0.0 0.0 1.0
  outer loop
    vertex 12.000000000000012 316.0000000000001 79.49999999999999
    vertex 12.250000000000005 312.9689110867545 79.49999999999999
    vertex 12.06814834742183 315.48236190979503 79.49999999999999
  endloop
endfacet
facet normal 0.0 0.0 1.0
  outer loop
    vertex 12.06814834742183 315.48236190979503 79.49999999999999
    vertex 12.250000000000005 312.9689110867545 79.49999999999999
    vertex 12.267949192431017 315.0000000000001 79.49999999999999
  endloop
endfacet
facet normal 0.0 0.0 1.0
  outer loop
    vertex 12.267949192431017 315.0000000000001 79.49999999999999
    vertex 12.250000000000005 312.9689110867545 79.49999999999999
    vertex 13.09413334214118 312.6192596079883 79.49999999999999
  endloop
endfacet
facet normal 0.0 0.0 1.0
  outer loop
    vertex 12.267949192431017 315.0000000000001 79.49999999999999
    vertex 13.09413334214118 312.6192596079883 79.49999999999999
    vertex 12.585786437626831 314.58578643762706 79.49999999999999
  endloop
endfacet
facet normal 0.0 0.0 1.0
  outer loop
    vertex 12.585786437626831 314.58578643762706 79.49999999999999
    vertex 13.09413334214118 312.6192596079883 79.49999999999999
    vertex 13.000000000000007 314.26794919243116 79.49999999999999
  endloop
endfacet
facet normal 0.0 0.0 1.0
  outer loop
    vertex 13.000000000000007 314.26794919243116 79.49999999999999
    vertex 13.09413334214118 312.6192596079883 79.49999999999999
    vertex 13.482361909794966 314.06814834742187 79.49999999999999
  endloop
endfacet
facet normal 0.0 0.0 1.0
  outer loop
    vertex 13.482361909794966 314.06814834742187 79.49999999999999
    vertex 13.09413334214118 312.6192596079883 79.49999999999999
    vertex 14.000000000000002 312.5 79.49999999999999
  endloop
endfacet
facet normal 0.0 0.0 1.0
  outer loop
    vertex 13.482361909794966 314.06814834742187 79.49999999999999
    vertex 14.000000000000002 312.5 79.49999999999999
    vertex 13.999999999999963 313.99999999999994 79.49999999999999
  endloop
endfacet
facet normal 0.0 0.0 1.0
  outer loop
    vertex 13.999999999999963 313.99999999999994 79.49999999999999
    vertex 14.000000000000002 312.5 79.49999999999999
    vertex 14.51763809020505 314.06814834742187 79.49999999999999
  endloop
endfacet
facet normal 0.0 0.0 1.0
  outer loop
    vertex 14.51763809020505 314.06814834742187 79.49999999999999
    vertex 14.000000000000002 312.5 79.49999999999999
    vertex 14.905866657858827 312.6192596079883 79.49999999999999
  endloop
endfacet
facet normal 0.0 0.0 1.0
  outer loop
    vertex 14.51763809020505 314.06814834742187 79.49999999999999
    vertex 14.905866657858827 312.6192596079883 79.49999999999999
    vertex 15.000000000000004 314.26794919243116 79.49999999999999
  endloop
endfacet
facet normal 0.0 0.0 1.0
  outer loop
    vertex 15.000000000000004 314.26794919243116 79.49999999999999
    vertex 14.905866657858827 312.6192596079883 79.49999999999999
    vertex 15.750000000000005 312.9689110867545 79.49999999999999
  endloop
endfacet
facet normal 0.0 0.0 1.0
  outer loop
    vertex 15.000000000000004 314.26794919243116 79.49999999999999
    vertex 15.750000000000005 312.9689110867545 79.49999999999999
    vertex 15.414213562373119 314.58578643762695 79.49999999999999
  endloop
endfacet
facet normal 0.0 0.0 1.0
  outer loop
    vertex 15.414213562373119 314.58578643762695 79.49999999999999
    vertex 15.750000000000005 312.9689110867545 79.49999999999999
    vertex 15.732050807568887 315.00000000000006 79.49999999999999
  endloop
endfacet
facet normal 0.0 0.0 1.0
  outer loop
    vertex 15.732050807568887 315.00000000000006 79.49999999999999
    vertex 15.750000000000005 312.9689110867545 79.49999999999999
    vertex 15.931851652578152 315.4823619097951 79.49999999999999
  endloop
endfacet
facet normal 0.0 0.0 1.0
  outer loop
    vertex 15.931851652578152 315.4823619097951 79.49999999999999
    vertex 15.750000000000005 312.9689110867545 79.49999999999999
    vertex 16.47487373415292 313.5251262658471 79.49999999999999
  endloop
endfacet
facet normal 0.0 0.0 1.0
  outer loop
    vertex 15.931851652578152 315.4823619097951 79.49999999999999
    vertex 16.47487373415292 313.5251262658471 79.49999999999999
    vertex 16.000000000000014 316.0000000000001 79.49999999999999
  endloop
endfacet
facet normal 0.0 0.0 1.0
  outer loop
    vertex 10.619259607988264 315.09413334214116 79.49999999999999
    vertex 10.619259607988264 316.90586665785884 79.49999999999999
    vertex 10.500000000000004 316.0 79.49999999999999
  endloop
endfacet
facet normal 0.0 0.0 1.0
  outer loop
    vertex 10.619259607988264 316.90586665785884 79.49999999999999
    vertex 10.619259607988264 315.09413334214116 79.49999999999999
    vertex 10.968911086754469 314.25 79.49999999999999
  endloop
endfacet
facet normal 0.0 0.0 1.0
  outer loop
    vertex 10.619259607988264 316.90586665785884 79.49999999999999
    vertex 10.968911086754469 314.25 79.49999999999999
    vertex 10.968911086754467 317.75 79.49999999999999
  endloop
endfacet
facet normal 0.0 0.0 1.0
  outer loop
    vertex 10.968911086754467 317.75 79.49999999999999
    vertex 10.968911086754469 314.25 79.49999999999999
    vertex 11.525126265847085 318.4748737341529 79.49999999999999
  endloop
endfacet
facet normal 0.0 0.0 1.0
  outer loop
    vertex 11.525126265847085 318.4748737341529 79.49999999999999
    vertex 10.968911086754469 314.25 79.49999999999999
    vertex 11.525126265847087 313.5251262658471 79.49999999999999
  endloop
endfacet
facet normal 0.0 0.0 1.0
  outer loop
    vertex 11.525126265847085 318.4748737341529 79.49999999999999
    vertex 11.525126265847087 313.5251262658471 79.49999999999999
    vertex 12.250000000000004 319.0310889132455 79.49999999999999
  endloop
endfacet
facet normal 0.0 0.0 1.0
  outer loop
    vertex 12.250000000000004 319.0310889132455 79.49999999999999
    vertex 11.525126265847087 313.5251262658471 79.49999999999999
    vertex 12.000000000000012 316.0000000000001 79.49999999999999
  endloop
endfacet
facet normal 0.0 0.0 1.0
  outer loop
    vertex 12.250000000000004 319.0310889132455 79.49999999999999
    vertex 12.000000000000012 316.0000000000001 79.49999999999999
    vertex 12.06814834742187 316.5176380902051 79.49999999999999
  endloop
endfacet
facet normal 0.0 0.0 1.0
  outer loop
    vertex 12.250000000000004 319.0310889132455 79.49999999999999
    vertex 12.06814834742187 316.5176380902051 79.49999999999999
    vertex 12.267949192431198 317.0000000000001 79.49999999999999
  endloop
endfacet
facet normal 0.0 0.0 1.0
  outer loop
    vertex 12.250000000000004 319.0310889132455 79.49999999999999
    vertex 12.267949192431198 317.0000000000001 79.49999999999999
    vertex 13.094133342141179 319.3807403920117 79.49999999999999
  endloop
endfacet
facet normal 0.0 0.0 1.0
  outer loop
    vertex 13.094133342141179 319.3807403920117 79.49999999999999
    vertex 12.267949192431198 317.0000000000001 79.49999999999999
    vertex 12.585786437626886 317.41421356237316 79.49999999999999
  endloop
endfacet
facet normal 0.0 0.0 1.0
  outer loop
    vertex 13.094133342141179 319.3807403920117 79.49999999999999
    vertex 12.585786437626886 317.41421356237316 79.49999999999999
    vertex 12.999999999999979 317.7320508075689 79.49999999999999
  endloop
endfacet
facet normal 0.0 0.0 1.0
  outer loop
    vertex 13.094133342141179 319.3807403920117 79.49999999999999
    vertex 12.999999999999979 317.7320508075689 79.49999999999999
    vertex 13.482361909794948 317.9318516525782 79.49999999999999
  endloop
endfacet
facet normal 0.0 0.0 1.0
  outer loop
    vertex 13.094133342141179 319.3807403920117 79.49999999999999
    vertex 13.482361909794948 317.9318516525782 79.49999999999999
    vertex 14.000000000000002 319.5 79.49999999999999
  endloop
endfacet
facet normal 0.0 0.0 1.0
  outer loop
    vertex 14.000000000000002 319.5 79.49999999999999
    vertex 13.482361909794948 317.9318516525782 79.49999999999999
    vertex 13.999999999999957 318.0 79.49999999999999
  endloop
endfacet
facet normal 0.0 0.0 1.0
  outer loop
    vertex 14.000000000000002 319.5 79.49999999999999
    vertex 13.999999999999957 318.0 79.49999999999999
    vertex 14.517638090205036 317.93185165257813 79.49999999999999
  endloop
endfacet
facet normal 0.0 0.0 1.0
  outer loop
    vertex 14.000000000000002 319.5 79.49999999999999
    vertex 14.517638090205036 317.93185165257813 79.49999999999999
    vertex 14.905866657858823 319.3807403920117 79.49999999999999
  endloop
endfacet
facet normal 0.0 0.0 1.0
  outer loop
    vertex 14.905866657858823 319.3807403920117 79.49999999999999
    vertex 14.517638090205036 317.93185165257813 79.49999999999999
    vertex 15.000000000000023 317.7320508075689 79.49999999999999
  endloop
endfacet
facet normal 0.0 0.0 1.0
  outer loop
    vertex 14.905866657858823 319.3807403920117 79.49999999999999
    vertex 15.000000000000023 317.7320508075689 79.49999999999999
    vertex 15.750000000000002 319.0310889132455 79.49999999999999
  endloop
endfacet
facet normal 0.0 0.0 1.0
  outer loop
    vertex 15.750000000000002 319.0310889132455 79.49999999999999
    vertex 15.000000000000023 317.7320508075689 79.49999999999999
    vertex 15.414213562373028 317.41421356237316 79.49999999999999
  endloop
endfacet
facet normal 0.0 0.0 1.0
  outer loop
    vertex 15.750000000000002 319.0310889132455 79.49999999999999
    vertex 15.414213562373028 317.41421356237316 79.49999999999999
    vertex 15.732050807568864 317.00000000000006 79.49999999999999
  endloop
endfacet
facet normal 0.0 0.0 1.0
  outer loop
    vertex 15.750000000000002 319.0310889132455 79.49999999999999
    vertex 15.732050807568864 317.00000000000006 79.49999999999999
    vertex 15.931851652578118 316.5176380902051 79.49999999999999
  endloop
endfacet
facet normal 0.0 0.0 1.0
  outer loop
    vertex 15.750000000000002 319.0310889132455 79.49999999999999
    vertex 15.931851652578118 316.5176380902051 79.49999999999999
    vertex 16.47487373415292 318.4748737341529 79.49999999999999
  endloop
endfacet
facet normal 0.0 0.0 1.0
  outer loop
    vertex 16.47487373415292 318.4748737341529 79.49999999999999
    vertex 15.931851652578118 316.5176380902051 79.49999999999999
    vertex 16.000000000000014 316.0000000000001 79.49999999999999
  endloop
endfacet
facet normal 0.0 0.0 1.0
  outer loop
    vertex 16.47487373415292 318.4748737341529 79.49999999999999
    vertex 16.000000000000014 316.0000000000001 79.49999999999999
    vertex 16.47487373415292 313.5251262658471 79.49999999999999
  endloop
endfacet
facet normal 0.0 0.0 1.0
  outer loop
    vertex 16.47487373415292 318.4748737341529 79.49999999999999
    vertex 16.47487373415292 313.5251262658471 79.49999999999999
    vertex 17.031088913245537 314.25 79.49999999999999
  endloop
endfacet
facet normal 0.0 0.0 1.0
  outer loop
    vertex 16.47487373415292 318.4748737341529 79.49999999999999
    vertex 17.031088913245537 314.25 79.49999999999999
    vertex 17.031088913245537 317.75 79.49999999999999
  endloop
endfacet
facet normal 0.0 0.0 1.0
  outer loop
    vertex 17.031088913245537 317.75 79.49999999999999
    vertex 17.031088913245537 314.25 79.49999999999999
    vertex 17.380740392011745 315.09413334214116 79.49999999999999
  endloop
endfacet
facet normal 0.0 0.0 1.0
  outer loop
    vertex 17.031088913245537 317.75 79.49999999999999
    vertex 17.380740392011745 315.09413334214116 79.49999999999999
    vertex 17.38074039201174 316.90586665785884 79.49999999999999
  endloop
endfacet
facet normal 0.0 0.0 1.0
  outer loop
    vertex 17.38074039201174 316.90586665785884 79.49999999999999
    vertex 17.380740392011745 315.09413334214116 79.49999999999999
    vertex 17.5 316.0 79.49999999999999
  endloop
endfacet
facet normal 0.991444861373811 0.13052619222004735 0.0
  outer loop
    vertex 9.626948703324032 316.0 79.49999999999999
    vertex 9.775956812853781 314.86817103921 82.49999999999999
    vertex 9.775956812853781 314.86817103921 79.49999999999999
  endloop
endfacet
facet normal 0.991444861373811 0.13052619222004735 0.0
  outer loop
    vertex 9.775956812853781 314.86817103921 82.49999999999999
    vertex 9.626948703324032 316.0 79.49999999999999
    vertex 9.626948703324032 316.0 82.49999999999999
  endloop
endfacet
facet normal 0.13052619222006384 0.9914448613738089 0.0
  outer loop
    vertex 12.868171039209972 311.7759568128538 82.49999999999999
    vertex 13.999999999999986 311.62694870332405 79.49999999999999
    vertex 12.868171039209972 311.7759568128538 79.49999999999999
  endloop
endfacet
facet normal 0.13052619222006384 0.9914448613738089 0.0
  outer loop
    vertex 13.999999999999986 311.62694870332405 79.49999999999999
    vertex 12.868171039209972 311.7759568128538 82.49999999999999
    vertex 13.999999999999986 311.62694870332405 82.49999999999999
  endloop
endfacet
facet normal 0.9238795325112823 0.3826834323651008 0.0
  outer loop
    vertex 9.775956812853781 314.86817103921 79.49999999999999
    vertex 10.212826485026126 313.813474351662 82.49999999999999
    vertex 10.212826485026126 313.813474351662 79.49999999999999
  endloop
endfacet
facet normal 0.9238795325112823 0.3826834323651008 0.0
  outer loop
    vertex 10.212826485026126 313.813474351662 82.49999999999999
    vertex 9.775956812853781 314.86817103921 79.49999999999999
    vertex 9.775956812853781 314.86817103921 82.49999999999999
  endloop
endfacet
facet normal 0.7933533402912472 0.6087614290087051 0.0
  outer loop
    vertex 10.212826485026126 313.813474351662 79.49999999999999
    vertex 10.907785773643791 312.9077857736438 82.49999999999999
    vertex 10.907785773643791 312.9077857736438 79.49999999999999
  endloop
endfacet
facet normal 0.7933533402912472 0.6087614290087051 0.0
  outer loop
    vertex 10.907785773643791 312.9077857736438 82.49999999999999
    vertex 10.212826485026126 313.813474351662 79.49999999999999
    vertex 10.212826485026126 313.813474351662 82.49999999999999
  endloop
endfacet
facet normal 0.9914448613738103 -0.13052619222005343 0.0
  outer loop
    vertex 9.775956812853789 317.13182896079 79.49999999999999
    vertex 9.626948703324032 316.0 82.49999999999999
    vertex 9.626948703324032 316.0 79.49999999999999
  endloop
endfacet
facet normal 0.9914448613738103 -0.13052619222005343 0.0
  outer loop
    vertex 9.626948703324032 316.0 82.49999999999999
    vertex 9.775956812853789 317.13182896079 79.49999999999999
    vertex 9.775956812853789 317.13182896079 82.49999999999999
  endloop
endfacet
facet normal -0.9914448613738104 0.1305261922200522 0.0
  outer loop
    vertex 18.37305129667597 316.0 82.49999999999999
    vertex 18.22404318714622 314.86817103921 79.49999999999999
    vertex 18.22404318714622 314.86817103921 82.49999999999999
  endloop
endfacet
facet normal -0.9914448613738104 0.1305261922200522 0.0
  outer loop
    vertex 18.22404318714622 314.86817103921 79.49999999999999
    vertex 18.37305129667597 316.0 82.49999999999999
    vertex 18.37305129667597 316.0 79.49999999999999
  endloop
endfacet
facet normal -0.6087614290087174 -0.7933533402912376 -0.0
  outer loop
    vertex 17.092214226356216 319.0922142263562 82.49999999999999
    vertex 16.186525648337998 319.78717351497386 79.49999999999999
    vertex 17.092214226356216 319.0922142263562 79.49999999999999
  endloop
endfacet
facet normal -0.6087614290087174 -0.7933533402912376 -0.0
  outer loop
    vertex 16.186525648337998 319.78717351497386 79.49999999999999
    vertex 17.092214226356216 319.0922142263562 82.49999999999999
    vertex 16.186525648337998 319.78717351497386 82.49999999999999
  endloop
endfacet
facet normal 0.6087614290087181 0.793353340291237 0.0
  outer loop
    vertex 10.907785773643791 312.9077857736438 82.49999999999999
    vertex 11.813474351662006 312.21282648502614 79.49999999999999
    vertex 10.907785773643791 312.9077857736438 79.49999999999999
  endloop
endfacet
facet normal 0.6087614290087181 0.793353340291237 0.0
  outer loop
    vertex 11.813474351662006 312.21282648502614 79.49999999999999
    vertex 10.907785773643791 312.9077857736438 82.49999999999999
    vertex 11.813474351662006 312.21282648502614 82.49999999999999
  endloop
endfacet
facet normal 0.9997313399384155 -1.1848850015033769e-16 -0.023178609642091307
  outer loop
    vertex 1.9999999999999851 322.0 65.0
    vertex 2.0785490343588107 186.00000000000003 68.38794831023127
    vertex 1.9999999999999458 186.00000000000003 64.999999999999
  endloop
endfacet
facet normal 0.9997313399384155 -1.1848850015033769e-16 -0.023178609642091307
  outer loop
    vertex 2.0785490343588107 186.00000000000003 68.38794831023127
    vertex 1.9999999999999851 322.0 65.0
    vertex 2.0785490343588497 322.0 68.38794831023226
  endloop
endfacet
facet normal 0.7933533402912307 -0.6087614290087265 0.0
  outer loop
    vertex 10.907785773643809 319.0922142263562 79.49999999999999
    vertex 10.21282648502614 318.18652564833803 82.49999999999999
    vertex 10.21282648502614 318.18652564833803 79.49999999999999
  endloop
endfacet
facet normal 0.7933533402912307 -0.6087614290087265 0.0
  outer loop
    vertex 10.21282648502614 318.18652564833803 82.49999999999999
    vertex 10.907785773643809 319.0922142263562 79.49999999999999
    vertex 10.907785773643809 319.0922142263562 82.49999999999999
  endloop
endfacet
facet normal -0.38268343236510655 0.9238795325112797 0.0
  outer loop
    vertex 15.131828960790001 311.7759568128538 82.49999999999999
    vertex 16.186525648337973 312.21282648502614 79.49999999999999
    vertex 15.131828960790001 311.7759568128538 79.49999999999999
  endloop
endfacet
facet normal -0.38268343236510655 0.9238795325112797 0.0
  outer loop
    vertex 16.186525648337973 312.21282648502614 79.49999999999999
    vertex 15.131828960790001 311.7759568128538 82.49999999999999
    vertex 16.186525648337973 312.21282648502614 82.49999999999999
  endloop
endfacet
facet normal 0.0 0.0 1.0
  outer loop
    vertex 28.0 186.0 82.49999999999999
    vertex 25.382981118307356 322.0 82.49999999999999
    vertex 25.382981118307356 186.00000000000014 82.49999999999999
  endloop
endfacet
facet normal 0.0 0.0 1.0
  outer loop
    vertex 25.382981118307356 322.0 82.49999999999999
    vertex 28.0 186.0 82.49999999999999
    vertex 28.0 322.0 82.49999999999999
  endloop
endfacet
facet normal -0.6087614290087139 0.7933533402912404 0.0
  outer loop
    vertex 16.186525648337973 312.21282648502614 82.49999999999999
    vertex 17.092214226356194 312.9077857736438 79.49999999999999
    vertex 16.186525648337973 312.21282648502614 79.49999999999999
  endloop
endfacet
facet normal -0.6087614290087139 0.7933533402912404 0.0
  outer loop
    vertex 17.092214226356194 312.9077857736438 79.49999999999999
    vertex 16.186525648337973 312.21282648502614 82.49999999999999
    vertex 17.092214226356194 312.9077857736438 82.49999999999999
  endloop
endfacet
facet normal 1.378461278015534e-16 1.0 1.7382191552890341e-15
  outer loop
    vertex 0.0 322.0 80.18859999999998
    vertex 1.9999999999999851 322.0 65.0
    vertex -7.826979293989726e-32 322.0 65.0
  endloop
endfacet
facet normal 1.378461278015534e-16 1.0 1.7382191552890341e-15
  outer loop
    vertex 1.9999999999999851 322.0 65.0
    vertex 0.0 322.0 80.18859999999998
    vertex 2.0785490343588497 322.0 68.38794831023226
  endloop
endfacet
facet normal 1.378461278015534e-16 1.0 1.7382191552890341e-15
  outer loop
    vertex 2.0785490343588497 322.0 68.38794831023226
    vertex 0.0 322.0 80.18859999999998
    vertex 3.0947951028214744 321.99999999999994 71.62084293145618
  endloop
endfacet
facet normal 1.378461278015534e-16 1.0 1.7382191552890341e-15
  outer loop
    vertex 3.0947951028214744 321.99999999999994 71.62084293145618
    vertex 0.0 322.0 80.18859999999998
    vertex 4.9688040659057195 321.99999999999994 74.44439638586151
  endloop
endfacet
facet normal 1.378461278015534e-16 1.0 1.7382191552890341e-15
  outer loop
    vertex 4.9688040659057195 321.99999999999994 74.44439638586151
    vertex 0.0 322.0 80.18859999999998
    vertex 7.553173342194899 321.99999999999994 76.63651845075134
  endloop
endfacet
facet normal 1.378461278015534e-16 1.0 1.7382191552890341e-15
  outer loop
    vertex 7.553173342194899 321.99999999999994 76.63651845075134
    vertex 0.0 322.0 80.18859999999998
    vertex 10.64462604765958 321.9999999999999 78.0247849501957
  endloop
endfacet
facet normal 1.378461278015534e-16 1.0 1.7382191552890341e-15
  outer loop
    vertex 10.64462604765958 321.9999999999999 78.0247849501957
    vertex 0.0 322.0 80.18859999999998
    vertex 13.999999999999885 321.9999999999999 78.50000000000001
  endloop
endfacet
facet normal 1.378461278015534e-16 1.0 1.7382191552890341e-15
  outer loop
    vertex 25.921450965641128 322.0 68.38794831023229
    vertex 28.0 322.0 65.0
    vertex 25.999999999999996 322.0 65.0
  endloop
endfacet
facet normal 1.378461278015534e-16 1.0 1.7382191552890341e-15
  outer loop
    vertex 28.0 322.0 65.0
    vertex 25.921450965641128 322.0 68.38794831023229
    vertex 28.0 322.0 80.18859999999998
  endloop
endfacet
facet normal 1.378461278015534e-16 1.0 1.7382191552890341e-15
  outer loop
    vertex 28.0 322.0 80.18859999999998
    vertex 25.921450965641128 322.0 68.38794831023229
    vertex 24.90520489717848 321.99999999999994 71.62084293145625
  endloop
endfacet
facet normal 1.378461278015534e-16 1.0 1.7382191552890341e-15
  outer loop
    vertex 28.0 322.0 80.18859999999998
    vertex 24.90520489717848 321.99999999999994 71.62084293145625
    vertex 23.031195934094193 321.99999999999994 74.4443963858616
  endloop
endfacet
facet normal 1.378461278015534e-16 1.0 1.7382191552890341e-15
  outer loop
    vertex 28.0 322.0 80.18859999999998
    vertex 23.031195934094193 321.99999999999994 74.4443963858616
    vertex 20.446826657804962 321.9999999999999 76.63651845075142
  endloop
endfacet
facet normal 1.378461278015534e-16 1.0 1.7382191552890341e-15
  outer loop
    vertex 28.0 322.0 80.18859999999998
    vertex 20.446826657804962 321.9999999999999 76.63651845075142
    vertex 17.355373952340226 321.9999999999999 78.02478495019574
  endloop
endfacet
facet normal 1.378461278015534e-16 1.0 1.7382191552890341e-15
  outer loop
    vertex 28.0 322.0 80.18859999999998
    vertex 17.355373952340226 321.9999999999999 78.02478495019574
    vertex 13.999999999999885 321.9999999999999 78.50000000000001
  endloop
endfacet
facet normal 1.378461278015534e-16 1.0 1.7382191552890341e-15
  outer loop
    vertex 28.0 322.0 80.18859999999998
    vertex 13.999999999999885 321.9999999999999 78.50000000000001
    vertex 0.0 322.0 80.18859999999998
  endloop
endfacet
facet normal 1.378461278015534e-16 1.0 1.7382191552890341e-15
  outer loop
    vertex 28.0 322.0 80.18859999999998
    vertex 0.0 322.0 80.18859999999998
    vertex 3.951500000000002 322.0 80.18859999999998
  endloop
endfacet
facet normal 1.378461278015534e-16 1.0 1.7382191552890341e-15
  outer loop
    vertex 28.0 322.0 80.18859999999998
    vertex 3.951500000000002 322.0 80.18859999999998
    vertex 9.2375 322.0 80.18859999999998
  endloop
endfacet
facet normal 1.378461278015534e-16 1.0 1.7382191552890341e-15
  outer loop
    vertex 28.0 322.0 80.18859999999998
    vertex 9.2375 322.0 80.18859999999998
    vertex 18.762499999999996 322.0 80.18859999999998
  endloop
endfacet
facet normal 1.378461278015534e-16 1.0 1.7382191552890341e-15
  outer loop
    vertex 28.0 322.0 80.18859999999998
    vertex 18.762499999999996 322.0 80.18859999999998
    vertex 24.04849370610245 322.0 80.18859999999998
  endloop
endfacet
facet normal -0.7933533402912314 0.6087614290087258 0.0
  outer loop
    vertex 17.787173514973862 313.813474351662 82.49999999999999
    vertex 17.092214226356194 312.9077857736438 79.49999999999999
    vertex 17.092214226356194 312.9077857736438 82.49999999999999
  endloop
endfacet
facet normal -0.7933533402912314 0.6087614290087258 0.0
  outer loop
    vertex 17.092214226356194 312.9077857736438 79.49999999999999
    vertex 17.787173514973862 313.813474351662 82.49999999999999
    vertex 17.787173514973862 313.813474351662 79.49999999999999
  endloop
endfacet
facet normal -0.9238795325112855 0.38268343236509317 0.0
  outer loop
    vertex 18.22404318714622 314.86817103921 82.49999999999999
    vertex 17.787173514973862 313.813474351662 79.49999999999999
    vertex 17.787173514973862 313.813474351662 82.49999999999999
  endloop
endfacet
facet normal -0.9238795325112855 0.38268343236509317 0.0
  outer loop
    vertex 17.787173514973862 313.813474351662 79.49999999999999
    vertex 18.22404318714622 314.86817103921 82.49999999999999
    vertex 18.22404318714622 314.86817103921 79.49999999999999
  endloop
endfacet
facet normal -0.1305261922200635 -0.9914448613738088 -0.0
  outer loop
    vertex 15.131828960790033 320.2240431871462 82.49999999999999
    vertex 14.000000000000016 320.37305129667595 79.49999999999999
    vertex 15.131828960790033 320.2240431871462 79.49999999999999
  endloop
endfacet
facet normal -0.1305261922200635 -0.9914448613738088 -0.0
  outer loop
    vertex 14.000000000000016 320.37305129667595 79.49999999999999
    vertex 15.131828960790033 320.2240431871462 82.49999999999999
    vertex 14.000000000000016 320.37305129667595 82.49999999999999
  endloop
endfacet
facet normal 0.923879532511286 -0.3826834323650921 0.0
  outer loop
    vertex 10.21282648502614 318.18652564833803 79.49999999999999
    vertex 9.775956812853789 317.13182896079 82.49999999999999
    vertex 9.775956812853789 317.13182896079 79.49999999999999
  endloop
endfacet
facet normal 0.923879532511286 -0.3826834323650921 0.0
  outer loop
    vertex 9.775956812853789 317.13182896079 82.49999999999999
    vertex 10.21282648502614 318.18652564833803 79.49999999999999
    vertex 10.21282648502614 318.18652564833803 82.49999999999999
  endloop
endfacet
facet normal -0.9914448613738114 -0.1305261922200449 -0.0
  outer loop
    vertex 18.224043187146226 317.13182896079 82.49999999999999
    vertex 18.37305129667597 316.0 79.49999999999999
    vertex 18.37305129667597 316.0 82.49999999999999
  endloop
endfacet
facet normal -0.9914448613738114 -0.1305261922200449 -0.0
  outer loop
    vertex 18.37305129667597 316.0 79.49999999999999
    vertex 18.224043187146226 317.13182896079 82.49999999999999
    vertex 18.224043187146226 317.13182896079 79.49999999999999
  endloop
endfacet
facet normal 0.3826834323650738 0.9238795325112935 0.0
  outer loop
    vertex 11.813474351662006 312.21282648502614 82.49999999999999
    vertex 12.868171039209972 311.7759568128538 79.49999999999999
    vertex 11.813474351662006 312.21282648502614 79.49999999999999
  endloop
endfacet
facet normal 0.3826834323650738 0.9238795325112935 0.0
  outer loop
    vertex 12.868171039209972 311.7759568128538 79.49999999999999
    vertex 11.813474351662006 312.21282648502614 82.49999999999999
    vertex 12.868171039209972 311.7759568128538 82.49999999999999
  endloop
endfacet
facet normal -0.13052619222002468 0.9914448613738142 0.0
  outer loop
    vertex 13.999999999999986 311.62694870332405 82.49999999999999
    vertex 15.131828960790001 311.7759568128538 79.49999999999999
    vertex 13.999999999999986 311.62694870332405 79.49999999999999
  endloop
endfacet
facet normal -0.13052619222002468 0.9914448613738142 0.0
  outer loop
    vertex 15.131828960790001 311.7759568128538 79.49999999999999
    vertex 13.999999999999986 311.62694870332405 82.49999999999999
    vertex 15.131828960790001 311.7759568128538 82.49999999999999
  endloop
endfacet
facet normal -0.9238795325112823 -0.3826834323651008 -0.0
  outer loop
    vertex 17.78717351497388 318.186525648338 82.49999999999999
    vertex 18.224043187146226 317.13182896079 79.49999999999999
    vertex 18.224043187146226 317.13182896079 82.49999999999999
  endloop
endfacet
facet normal -0.9238795325112823 -0.3826834323651008 -0.0
  outer loop
    vertex 18.224043187146226 317.13182896079 79.49999999999999
    vertex 17.78717351497388 318.186525648338 82.49999999999999
    vertex 17.78717351497388 318.186525648338 79.49999999999999
  endloop
endfacet
facet normal -0.64686144195943 5.659749400709976e-15 -0.7626075497306377
  outer loop
    vertex 20.446826657804962 321.9999999999999 76.63651845075142
    vertex 23.03119593409417 185.99999999999994 74.4443963858606
    vertex 20.44682665780494 185.99999999999994 76.63651845075043
  endloop
endfacet
facet normal -0.64686144195943 5.659749400709976e-15 -0.7626075497306377
  outer loop
    vertex 23.03119593409417 185.99999999999994 74.4443963858606
    vertex 20.446826657804962 321.9999999999999 76.63651845075142
    vertex 23.031195934094193 321.99999999999994 74.4443963858616
  endloop
endfacet
facet normal -1.0 0.0 0.0
  outer loop
    vertex 12.75 186.0 78.49999999999999
    vertex 12.75 164.0 78.49999999999999
    vertex 12.75 186.0 82.49999999999999
  endloop
endfacet
facet normal 0.0 0.0 1.0
  outer loop
    vertex 12.75 186.0 82.49999999999999
    vertex 7.903012587795101 322.0 82.49999999999999
    vertex 7.903012587795101 186.00000000000003 82.49999999999999
  endloop
endfacet
facet normal 0.0 0.0 1.0
  outer loop
    vertex 7.903012587795101 322.0 82.49999999999999
    vertex 12.75 186.0 82.49999999999999
    vertex 9.626948703324032 316.0 82.49999999999999
  endloop
endfacet
facet normal 0.0 0.0 1.0
  outer loop
    vertex 9.626948703324032 316.0 82.49999999999999
    vertex 12.75 186.0 82.49999999999999
    vertex 9.775956812853781 314.86817103921 82.49999999999999
  endloop
endfacet
facet normal 0.0 0.0 1.0
  outer loop
    vertex 9.775956812853781 314.86817103921 82.49999999999999
    vertex 12.75 186.0 82.49999999999999
    vertex 10.212826485026126 313.813474351662 82.49999999999999
  endloop
endfacet
facet normal 0.0 0.0 1.0
  outer loop
    vertex 10.212826485026126 313.813474351662 82.49999999999999
    vertex 12.75 186.0 82.49999999999999
    vertex 10.907785773643791 312.9077857736438 82.49999999999999
  endloop
endfacet
facet normal 0.0 0.0 1.0
  outer loop
    vertex 10.907785773643791 312.9077857736438 82.49999999999999
    vertex 12.75 186.0 82.49999999999999
    vertex 11.813474351662006 312.21282648502614 82.49999999999999
  endloop
endfacet
facet normal 0.0 0.0 1.0
  outer loop
    vertex 11.813474351662006 312.21282648502614 82.49999999999999
    vertex 12.75 186.0 82.49999999999999
    vertex 12.868171039209972 311.7759568128538 82.49999999999999
  endloop
endfacet
facet normal 0.0 0.0 1.0
  outer loop
    vertex 12.868171039209972 311.7759568128538 82.49999999999999
    vertex 12.75 186.0 82.49999999999999
    vertex 15.25 186.0 82.49999999999999
  endloop
endfacet
facet normal 0.0 0.0 1.0
  outer loop
    vertex 12.868171039209972 311.7759568128538 82.49999999999999
    vertex 15.25 186.0 82.49999999999999
    vertex 13.999999999999986 311.62694870332405 82.49999999999999
  endloop
endfacet
facet normal 0.0 0.0 1.0
  outer loop
    vertex 13.999999999999986 311.62694870332405 82.49999999999999
    vertex 15.25 186.0 82.49999999999999
    vertex 15.131828960790001 311.7759568128538 82.49999999999999
  endloop
endfacet
facet normal 0.0 0.0 1.0
  outer loop
    vertex 15.131828960790001 311.7759568128538 82.49999999999999
    vertex 15.25 186.0 82.49999999999999
    vertex 16.186525648337973 312.21282648502614 82.49999999999999
  endloop
endfacet
facet normal 0.0 0.0 1.0
  outer loop
    vertex 16.186525648337973 312.21282648502614 82.49999999999999
    vertex 15.25 186.0 82.49999999999999
    vertex 20.096987412204903 186.00000000000014 82.49999999999999
  endloop
endfacet
facet normal 0.0 0.0 1.0
  outer loop
    vertex 16.186525648337973 312.21282648502614 82.49999999999999
    vertex 20.096987412204903 186.00000000000014 82.49999999999999
    vertex 17.092214226356194 312.9077857736438 82.49999999999999
  endloop
endfacet
facet normal 0.0 0.0 1.0
  outer loop
    vertex 17.092214226356194 312.9077857736438 82.49999999999999
    vertex 20.096987412204903 186.00000000000014 82.49999999999999
    vertex 17.787173514973862 313.813474351662 82.49999999999999
  endloop
endfacet
facet normal 0.0 0.0 1.0
  outer loop
    vertex 17.787173514973862 313.813474351662 82.49999999999999
    vertex 20.096987412204903 186.00000000000014 82.49999999999999
    vertex 18.22404318714622 314.86817103921 82.49999999999999
  endloop
endfacet
facet normal 0.0 0.0 1.0
  outer loop
    vertex 18.22404318714622 314.86817103921 82.49999999999999
    vertex 20.096987412204903 186.00000000000014 82.49999999999999
    vertex 18.37305129667597 316.0 82.49999999999999
  endloop
endfacet
facet normal 0.0 0.0 1.0
  outer loop
    vertex 7.903012587795101 322.0 82.49999999999999
    vertex 12.86817103921 320.22404318714626 82.49999999999999
    vertex 20.096987412204903 322.0 82.49999999999999
  endloop
endfacet
facet normal 0.0 0.0 1.0
  outer loop
    vertex 12.86817103921 320.22404318714626 82.49999999999999
    vertex 7.903012587795101 322.0 82.49999999999999
    vertex 11.81347435166203 319.78717351497386 82.49999999999999
  endloop
endfacet
facet normal 0.0 0.0 1.0
  outer loop
    vertex 11.81347435166203 319.78717351497386 82.49999999999999
    vertex 7.903012587795101 322.0 82.49999999999999
    vertex 10.907785773643809 319.0922142263562 82.49999999999999
  endloop
endfacet
facet normal 0.0 0.0 1.0
  outer loop
    vertex 10.907785773643809 319.0922142263562 82.49999999999999
    vertex 7.903012587795101 322.0 82.49999999999999
    vertex 10.21282648502614 318.18652564833803 82.49999999999999
  endloop
endfacet
facet normal 0.0 0.0 1.0
  outer loop
    vertex 10.21282648502614 318.18652564833803 82.49999999999999
    vertex 7.903012587795101 322.0 82.49999999999999
    vertex 9.775956812853789 317.13182896079 82.49999999999999
  endloop
endfacet
facet normal 0.0 0.0 1.0
  outer loop
    vertex 9.775956812853789 317.13182896079 82.49999999999999
    vertex 7.903012587795101 322.0 82.49999999999999
    vertex 9.626948703324032 316.0 82.49999999999999
  endloop
endfacet
facet normal 0.0 0.0 1.0
  outer loop
    vertex 20.096987412204903 322.0 82.49999999999999
    vertex 12.86817103921 320.22404318714626 82.49999999999999
    vertex 14.000000000000016 320.37305129667595 82.49999999999999
  endloop
endfacet
facet normal 0.0 0.0 1.0
  outer loop
    vertex 20.096987412204903 322.0 82.49999999999999
    vertex 14.000000000000016 320.37305129667595 82.49999999999999
    vertex 15.131828960790033 320.2240431871462 82.49999999999999
  endloop
endfacet
facet normal 0.0 0.0 1.0
  outer loop
    vertex 20.096987412204903 322.0 82.49999999999999
    vertex 15.131828960790033 320.2240431871462 82.49999999999999
    vertex 16.186525648337998 319.78717351497386 82.49999999999999
  endloop
endfacet
facet normal 0.0 0.0 1.0
  outer loop
    vertex 20.096987412204903 322.0 82.49999999999999
    vertex 16.186525648337998 319.78717351497386 82.49999999999999
    vertex 17.092214226356216 319.0922142263562 82.49999999999999
  endloop
endfacet
facet normal 0.0 0.0 1.0
  outer loop
    vertex 20.096987412204903 322.0 82.49999999999999
    vertex 17.092214226356216 319.0922142263562 82.49999999999999
    vertex 17.78717351497388 318.186525648338 82.49999999999999
  endloop
endfacet
facet normal 0.0 0.0 1.0
  outer loop
    vertex 20.096987412204903 322.0 82.49999999999999
    vertex 17.78717351497388 318.186525648338 82.49999999999999
    vertex 18.224043187146226 317.13182896079 82.49999999999999
  endloop
endfacet
facet normal 0.0 0.0 1.0
  outer loop
    vertex 20.096987412204903 322.0 82.49999999999999
    vertex 18.224043187146226 317.13182896079 82.49999999999999
    vertex 18.37305129667597 316.0 82.49999999999999
  endloop
endfacet
facet normal 0.0 0.0 1.0
  outer loop
    vertex 20.096987412204903 322.0 82.49999999999999
    vertex 18.37305129667597 316.0 82.49999999999999
    vertex 20.096987412204903 186.00000000000014 82.49999999999999
  endloop
endfacet
facet normal 2.4815705046421477e-13 3.649368389179626e-15 -1.0
  outer loop
    vertex 25.999999999999996 322.0 65.0
    vertex 28.0 186.0 65.0
    vertex 25.999999999999993 186.00000000000003 64.999999999999
  endloop
endfacet
facet normal 2.4815705046421477e-13 3.649368389179626e-15 -1.0
  outer loop
    vertex 28.0 186.0 65.0
    vertex 25.999999999999996 322.0 65.0
    vertex 28.0 322.0 65.0
  endloop
endfacet
facet normal -0.833187114996701 4.156653137167563e-15 -0.5529911675637091
  outer loop
    vertex 23.031195934094193 321.99999999999994 74.4443963858616
    vertex 24.905204897178457 185.99999999999994 71.62084293145526
    vertex 23.03119593409417 185.99999999999994 74.4443963858606
  endloop
endfacet
facet normal -0.833187114996701 4.156653137167563e-15 -0.5529911675637091
  outer loop
    vertex 24.905204897178457 185.99999999999994 71.62084293145526
    vertex 23.031195934094193 321.99999999999994 74.4443963858616
    vertex 24.90520489717848 321.99999999999994 71.62084293145625
  endloop
endfacet
facet normal 0.833187114996705 3.809795823988537e-15 -0.5529911675637031
  outer loop
    vertex 3.0947951028214744 321.99999999999994 71.62084293145618
    vertex 4.968804065905685 185.99999999999994 74.44439638586051
    vertex 3.0947951028214353 185.99999999999994 71.62084293145519
  endloop
endfacet
facet normal 0.833187114996705 3.809795823988537e-15 -0.5529911675637031
  outer loop
    vertex 4.968804065905685 185.99999999999994 74.44439638586051
    vertex 3.0947951028214744 321.99999999999994 71.62084293145618
    vertex 4.9688040659057195 321.99999999999994 74.44439638586151
  endloop
endfacet
facet normal -0.9997313399384155 2.1064463360325872e-16 -0.02317860964209274
  outer loop
    vertex 25.921450965641128 322.0 68.38794831023229
    vertex 25.999999999999993 186.00000000000003 64.999999999999
    vertex 25.92145096564112 186.00000000000003 68.3879483102313
  endloop
endfacet
facet normal -0.9997313399384155 2.1064463360325872e-16 -0.02317860964209274
  outer loop
    vertex 25.999999999999993 186.00000000000003 64.999999999999
    vertex 25.921450965641128 322.0 68.38794831023229
    vertex 25.999999999999996 322.0 65.0
  endloop
endfacet
facet normal -2.4815705046421684e-13 3.649368389179667e-15 -1.0
  outer loop
    vertex 1.9999999999999851 322.0 65.0
    vertex 0.0 186.0 65.0
    vertex -7.826979293989726e-32 322.0 65.0
  endloop
endfacet
facet normal -2.4815705046421684e-13 3.649368389179667e-15 -1.0
  outer loop
    vertex 0.0 186.0 65.0
    vertex 1.9999999999999851 322.0 65.0
    vertex 1.9999999999999458 186.00000000000003 64.999999999999
  endloop
endfacet
facet normal 0.0 1.0 0.0
  outer loop
    vertex 7.903012587795101 322.0 82.49999999999999
    vertex 18.762499999999996 322.0 80.18859999999998
    vertex 9.2375 322.0 80.18859999999998
  endloop
endfacet
facet normal 0.0 1.0 0.0
  outer loop
    vertex 18.762499999999996 322.0 80.18859999999998
    vertex 7.903012587795101 322.0 82.49999999999999
    vertex 20.096987412204903 322.0 82.49999999999999
  endloop
endfacet
facet normal 8.351607113130116e-15 -1.0 8.397891883610932e-15
  outer loop
    vertex 28.0 186.0 65.0
    vertex 25.92145096564112 186.00000000000003 68.3879483102313
    vertex 25.999999999999993 186.00000000000003 64.999999999999
  endloop
endfacet
facet normal 8.351607113130116e-15 -1.0 8.397891883610932e-15
  outer loop
    vertex 25.92145096564112 186.00000000000003 68.3879483102313
    vertex 28.0 186.0 65.0
    vertex 28.0 186.0 82.49999999999999
  endloop
endfacet
facet normal 8.351607113130116e-15 -1.0 8.397891883610932e-15
  outer loop
    vertex 25.92145096564112 186.00000000000003 68.3879483102313
    vertex 28.0 186.0 82.49999999999999
    vertex 24.905204897178457 185.99999999999994 71.62084293145526
  endloop
endfacet
facet normal 8.351607113130116e-15 -1.0 8.397891883610932e-15
  outer loop
    vertex 24.905204897178457 185.99999999999994 71.62084293145526
    vertex 28.0 186.0 82.49999999999999
    vertex 23.03119593409417 185.99999999999994 74.4443963858606
  endloop
endfacet
facet normal 8.351607113130116e-15 -1.0 8.397891883610932e-15
  outer loop
    vertex 23.03119593409417 185.99999999999994 74.4443963858606
    vertex 28.0 186.0 82.49999999999999
    vertex 20.44682665780494 185.99999999999994 76.63651845075043
  endloop
endfacet
facet normal 8.351607113130116e-15 -1.0 8.397891883610932e-15
  outer loop
    vertex 20.44682665780494 185.99999999999994 76.63651845075043
    vertex 28.0 186.0 82.49999999999999
    vertex 24.04849370610245 186.00000000000014 80.18859999999998
  endloop
endfacet
facet normal 8.351607113130116e-15 -1.0 8.397891883610932e-15
  outer loop
    vertex 20.44682665780494 185.99999999999994 76.63651845075043
    vertex 24.04849370610245 186.00000000000014 80.18859999999998
    vertex 17.35537395234021 185.99999999999994 78.02478495019474
  endloop
endfacet
facet normal 8.351607113130116e-15 -1.0 8.397891883610932e-15
  outer loop
    vertex 17.35537395234021 185.99999999999994 78.02478495019474
    vertex 24.04849370610245 186.00000000000014 80.18859999999998
    vertex 15.25 186.0 78.49999999999999
  endloop
endfacet
facet normal 8.351607113130116e-15 -1.0 8.397891883610932e-15
  outer loop
    vertex 17.35537395234021 185.99999999999994 78.02478495019474
    vertex 15.25 186.0 78.49999999999999
    vertex 13.999999999999865 185.99999999999994 78.49999999999902
  endloop
endfacet
facet normal 8.351607113130116e-15 -1.0 8.397891883610932e-15
  outer loop
    vertex 24.04849370610245 186.00000000000014 80.18859999999998
    vertex 28.0 186.0 82.49999999999999
    vertex 25.382981118307356 186.00000000000014 82.49999999999999
  endloop
endfacet
facet normal 8.351607113130116e-15 -1.0 8.397891883610932e-15
  outer loop
    vertex 15.25 186.0 78.49999999999999
    vertex 18.762499999999996 186.00000000000014 80.18859999999998
    vertex 15.25 186.0 82.49999999999999
  endloop
endfacet
facet normal 8.351607113130116e-15 -1.0 8.397891883610932e-15
  outer loop
    vertex 18.762499999999996 186.00000000000014 80.18859999999998
    vertex 15.25 186.0 78.49999999999999
    vertex 24.04849370610245 186.00000000000014 80.18859999999998
  endloop
endfacet
facet normal 8.351607113130116e-15 -1.0 8.397891883610932e-15
  outer loop
    vertex 15.25 186.0 82.49999999999999
    vertex 18.762499999999996 186.00000000000014 80.18859999999998
    vertex 20.096987412204903 186.00000000000014 82.49999999999999
  endloop
endfacet
facet normal 0.4096560515664906 6.559707254551454e-15 -0.9122400558049143
  outer loop
    vertex 7.553173342194899 321.99999999999994 76.63651845075134
    vertex 10.644626047659548 185.99999999999994 78.0247849501947
    vertex 7.553173342194867 185.99999999999994 76.63651845075034
  endloop
endfacet
facet normal 0.4096560515664906 6.559707254551454e-15 -0.9122400558049143
  outer loop
    vertex 10.644626047659548 185.99999999999994 78.0247849501947
    vertex 7.553173342194899 321.99999999999994 76.63651845075134
    vertex 10.64462604765958 321.9999999999999 78.0247849501957
  endloop
endfacet
facet normal 0.0 0.0 1.0
  outer loop
    vertex 9.2375 186.00000000000003 80.18859999999998
    vertex 3.951500000000002 322.0 80.18859999999998
    vertex 3.951500000000002 186.00000000000003 80.18859999999998
  endloop
endfacet
facet normal 0.0 0.0 1.0
  outer loop
    vertex 3.951500000000002 322.0 80.18859999999998
    vertex 9.2375 186.00000000000003 80.18859999999998
    vertex 9.2375 322.0 80.18859999999998
  endloop
endfacet
facet normal -0.953977385603712 2.27787007326763e-15 -0.2998785550130363
  outer loop
    vertex 24.90520489717848 321.99999999999994 71.62084293145625
    vertex 25.92145096564112 186.00000000000003 68.3879483102313
    vertex 24.905204897178457 185.99999999999994 71.62084293145526
  endloop
endfacet
facet normal -0.953977385603712 2.27787007326763e-15 -0.2998785550130363
  outer loop
    vertex 25.92145096564112 186.00000000000003 68.3879483102313
    vertex 24.90520489717848 321.99999999999994 71.62084293145625
    vertex 25.921450965641128 322.0 68.38794831023229
  endloop
endfacet
facet normal 9.76927128714099e-28 -1.0 5.639932965097629e-15
  outer loop
    vertex 15.25 186.0 78.49999999999999
    vertex 12.75 186.0 78.49999999999999
    vertex 13.999999999999865 185.99999999999994 78.49999999999902
  endloop
endfacet
facet normal 9.76927128714099e-28 -1.0 5.639932965097629e-15
  outer loop
    vertex 12.75 186.0 78.49999999999999
    vertex 15.25 186.0 78.49999999999999
    vertex 15.25 186.0 82.49999999999999
  endloop
endfacet
facet normal 9.76927128714099e-28 -1.0 5.639932965097629e-15
  outer loop
    vertex 12.75 186.0 78.49999999999999
    vertex 15.25 186.0 82.49999999999999
    vertex 12.75 186.0 82.49999999999999
  endloop
endfacet
facet normal 0.0 1.0 0.0
  outer loop
    vertex 0.0 322.0 82.49999999999999
    vertex 3.951500000000002 322.0 80.18859999999998
    vertex 0.0 322.0 80.18859999999998
  endloop
endfacet
facet normal 0.0 1.0 0.0
  outer loop
    vertex 3.951500000000002 322.0 80.18859999999998
    vertex 0.0 322.0 82.49999999999999
    vertex 2.6170125877950987 322.0 82.49999999999999
  endloop
endfacet
facet normal 0.0 -0.17888543819998282 0.9838699100999075
  outer loop
    vertex 15.25 164.0 78.49999999999999
    vertex 12.75 186.0 82.49999999999999
    vertex 12.75 164.0 78.49999999999999
  endloop
endfacet
facet normal 0.0 -0.17888543819998282 0.9838699100999075
  outer loop
    vertex 12.75 186.0 82.49999999999999
    vertex 15.25 164.0 78.49999999999999
    vertex 15.25 186.0 82.49999999999999
  endloop
endfacet
facet normal -0.8660254037844387 0.0 0.5
  outer loop
    vertex 25.382981118307356 322.0 82.49999999999999
    vertex 24.04849370610245 186.00000000000014 80.18859999999998
    vertex 25.382981118307356 186.00000000000014 82.49999999999999
  endloop
endfacet
facet normal -0.8660254037844387 0.0 0.5
  outer loop
    vertex 24.04849370610245 186.00000000000014 80.18859999999998
    vertex 25.382981118307356 322.0 82.49999999999999
    vertex 24.04849370610245 322.0 80.18859999999998
  endloop
endfacet
facet normal 1.0 0.0 0.0
  outer loop
    vertex 15.25 186.0 82.49999999999999
    vertex 15.25 164.0 78.49999999999999
    vertex 15.25 186.0 78.49999999999999
  endloop
endfacet
facet normal -3.675985561542791e-15 -1.0 1.7382055496334525e-15
  outer loop
    vertex 12.75 186.0 82.49999999999999
    vertex 9.2375 186.00000000000003 80.18859999999998
    vertex 12.75 186.0 78.49999999999999
  endloop
endfacet
facet normal -3.675985561542791e-15 -1.0 1.7382055496334525e-15
  outer loop
    vertex 9.2375 186.00000000000003 80.18859999999998
    vertex 12.75 186.0 82.49999999999999
    vertex 7.903012587795101 186.00000000000003 82.49999999999999
  endloop
endfacet
facet normal -3.675985561542791e-15 -1.0 1.7382055496334525e-15
  outer loop
    vertex 2.0785490343588107 186.00000000000003 68.38794831023127
    vertex 0.0 186.0 65.0
    vertex 1.9999999999999458 186.00000000000003 64.999999999999
  endloop
endfacet
facet normal -3.675985561542791e-15 -1.0 1.7382055496334525e-15
  outer loop
    vertex 0.0 186.0 65.0
    vertex 2.0785490343588107 186.00000000000003 68.38794831023127
    vertex 0.0 186.0 82.49999999999999
  endloop
endfacet
facet normal -3.675985561542791e-15 -1.0 1.7382055496334525e-15
  outer loop
    vertex 0.0 186.0 82.49999999999999
    vertex 2.0785490343588107 186.00000000000003 68.38794831023127
    vertex 3.0947951028214353 185.99999999999994 71.62084293145519
  endloop
endfacet
facet normal -3.675985561542791e-15 -1.0 1.7382055496334525e-15
  outer loop
    vertex 0.0 186.0 82.49999999999999
    vertex 3.0947951028214353 185.99999999999994 71.62084293145519
    vertex 4.968804065905685 185.99999999999994 74.44439638586051
  endloop
endfacet
facet normal -3.675985561542791e-15 -1.0 1.7382055496334525e-15
  outer loop
    vertex 0.0 186.0 82.49999999999999
    vertex 4.968804065905685 185.99999999999994 74.44439638586051
    vertex 7.553173342194867 185.99999999999994 76.63651845075034
  endloop
endfacet
facet normal -3.675985561542791e-15 -1.0 1.7382055496334525e-15
  outer loop
    vertex 0.0 186.0 82.49999999999999
    vertex 7.553173342194867 185.99999999999994 76.63651845075034
    vertex 3.951500000000002 186.00000000000003 80.18859999999998
  endloop
endfacet
facet normal -3.675985561542791e-15 -1.0 1.7382055496334525e-15
  outer loop
    vertex 3.951500000000002 186.00000000000003 80.18859999999998
    vertex 7.553173342194867 185.99999999999994 76.63651845075034
    vertex 10.644626047659548 185.99999999999994 78.0247849501947
  endloop
endfacet
facet normal -3.675985561542791e-15 -1.0 1.7382055496334525e-15
  outer loop
    vertex 3.951500000000002 186.00000000000003 80.18859999999998
    vertex 10.644626047659548 185.99999999999994 78.0247849501947
    vertex 12.75 186.0 78.49999999999999
  endloop
endfacet
facet normal -3.675985561542791e-15 -1.0 1.7382055496334525e-15
  outer loop
    vertex 12.75 186.0 78.49999999999999
    vertex 10.644626047659548 185.99999999999994 78.0247849501947
    vertex 13.999999999999865 185.99999999999994 78.49999999999902
  endloop
endfacet
facet normal -3.675985561542791e-15 -1.0 1.7382055496334525e-15
  outer loop
    vertex 3.951500000000002 186.00000000000003 80.18859999999998
    vertex 12.75 186.0 78.49999999999999
    vertex 9.2375 186.00000000000003 80.18859999999998
  endloop
endfacet
facet normal -3.675985561542791e-15 -1.0 1.7382055496334525e-15
  outer loop
    vertex 0.0 186.0 82.49999999999999
    vertex 3.951500000000002 186.00000000000003 80.18859999999998
    vertex 2.6170125877950987 186.00000000000003 82.49999999999999
  endloop
endfacet
facet normal 0.8660254037844387 0.0 0.5
  outer loop
    vertex 3.951500000000002 322.0 80.18859999999998
    vertex 2.6170125877950987 186.00000000000003 82.49999999999999
    vertex 3.951500000000002 186.00000000000003 80.18859999999998
  endloop
endfacet
facet normal 0.8660254037844387 0.0 0.5
  outer loop
    vertex 2.6170125877950987 186.00000000000003 82.49999999999999
    vertex 3.951500000000002 322.0 80.18859999999998
    vertex 2.6170125877950987 322.0 82.49999999999999
  endloop
endfacet
facet normal 0.8660254037844382 0.0 -0.5000000000000008
  outer loop
    vertex 18.762499999999996 322.0 80.18859999999998
    vertex 20.096987412204903 186.00000000000014 82.49999999999999
    vertex 18.762499999999996 186.00000000000014 80.18859999999998
  endloop
endfacet
facet normal 0.8660254037844382 0.0 -0.5000000000000008
  outer loop
    vertex 20.096987412204903 186.00000000000014 82.49999999999999
    vertex 18.762499999999996 322.0 80.18859999999998
    vertex 20.096987412204903 322.0 82.49999999999999
  endloop
endfacet
facet normal 1.0 0.0 0.0
  outer loop
    vertex 28.0 322.0 65.0
    vertex 28.0 186.0 82.49999999999999
    vertex 28.0 186.0 65.0
  endloop
endfacet
facet normal 1.0 0.0 0.0
  outer loop
    vertex 28.0 186.0 82.49999999999999
    vertex 28.0 322.0 65.0
    vertex 28.0 322.0 82.49999999999999
  endloop
endfacet
facet normal 1.0 0.0 0.0
  outer loop
    vertex 28.0 322.0 82.49999999999999
    vertex 28.0 322.0 65.0
    vertex 28.0 322.0 80.18859999999998
  endloop
endfacet
facet normal -0.8660254037844392 2.7516300908974224e-32 -0.4999999999999991
  outer loop
    vertex 7.903012587795101 322.0 82.49999999999999
    vertex 9.2375 186.00000000000003 80.18859999999998
    vertex 7.903012587795101 186.00000000000003 82.49999999999999
  endloop
endfacet
facet normal -0.8660254037844392 2.7516300908974224e-32 -0.4999999999999991
  outer loop
    vertex 9.2375 186.00000000000003 80.18859999999998
    vertex 7.903012587795101 322.0 82.49999999999999
    vertex 9.2375 322.0 80.18859999999998
  endloop
endfacet
facet normal 0.9238795325113023 0.38268343236505226 -2.688030264462738e-15
  outer loop
    vertex 15.732050807568909 316.99999999999994 78.25469303199175
    vertex 15.931851652578118 316.5176380902051 79.49999999999999
    vertex 15.93185165257814 316.51763809020497 78.2263956291208
  endloop
endfacet
facet normal 0.9238795325113023 0.38268343236505226 -2.688030264462738e-15
  outer loop
    vertex 15.931851652578118 316.5176380902051 79.49999999999999
    vertex 15.732050807568909 316.99999999999994 78.25469303199175
    vertex 15.732050807568864 317.00000000000006 79.49999999999999
  endloop
endfacet
facet normal 0.9914448613738098 -0.13052619222005665 -4.257310418377944e-15
  outer loop
    vertex 16.000000000000004 316.00000000000006 78.2167439119727
    vertex 15.931851652578152 315.4823619097951 79.49999999999999
    vertex 15.931851652578146 315.4823619097951 78.22639562912082
  endloop
endfacet
facet normal 0.9914448613738098 -0.13052619222005665 -4.257310418377944e-15
  outer loop
    vertex 15.931851652578152 315.4823619097951 79.49999999999999
    vertex 16.000000000000004 316.00000000000006 78.2167439119727
    vertex 16.000000000000014 316.0000000000001 79.49999999999999
  endloop
endfacet
facet normal 0.6087614290087151 -0.7933533402912395 0.0
  outer loop
    vertex 11.81347435166203 319.78717351497386 82.49999999999999
    vertex 10.907785773643809 319.0922142263562 79.49999999999999
    vertex 11.81347435166203 319.78717351497386 79.49999999999999
  endloop
endfacet
facet normal 0.6087614290087151 -0.7933533402912395 0.0
  outer loop
    vertex 10.907785773643809 319.0922142263562 79.49999999999999
    vertex 11.81347435166203 319.78717351497386 82.49999999999999
    vertex 10.907785773643809 319.0922142263562 82.49999999999999
  endloop
endfacet
facet normal 0.13052619222002468 -0.9914448613738142 0.0
  outer loop
    vertex 14.000000000000016 320.37305129667595 82.49999999999999
    vertex 12.86817103921 320.22404318714626 79.49999999999999
    vertex 14.000000000000016 320.37305129667595 79.49999999999999
  endloop
endfacet
facet normal 0.13052619222002468 -0.9914448613738142 0.0
  outer loop
    vertex 12.86817103921 320.22404318714626 79.49999999999999
    vertex 14.000000000000016 320.37305129667595 82.49999999999999
    vertex 12.86817103921 320.22404318714626 82.49999999999999
  endloop
endfacet
facet normal 0.38268343236510655 -0.9238795325112797 0.0
  outer loop
    vertex 12.86817103921 320.22404318714626 82.49999999999999
    vertex 11.81347435166203 319.78717351497386 79.49999999999999
    vertex 12.86817103921 320.22404318714626 79.49999999999999
  endloop
endfacet
facet normal 0.38268343236510655 -0.9238795325112797 0.0
  outer loop
    vertex 11.81347435166203 319.78717351497386 79.49999999999999
    vertex 12.86817103921 320.22404318714626 82.49999999999999
    vertex 11.81347435166203 319.78717351497386 82.49999999999999
  endloop
endfacet
facet normal -0.3826834323650738 -0.9238795325112935 -0.0
  outer loop
    vertex 16.186525648337998 319.78717351497386 82.49999999999999
    vertex 15.131828960790033 320.2240431871462 79.49999999999999
    vertex 16.186525648337998 319.78717351497386 79.49999999999999
  endloop
endfacet
facet normal -0.3826834323650738 -0.9238795325112935 -0.0
  outer loop
    vertex 15.131828960790033 320.2240431871462 79.49999999999999
    vertex 16.186525648337998 319.78717351497386 82.49999999999999
    vertex 15.131828960790033 320.2240431871462 82.49999999999999
  endloop
endfacet
facet normal -0.7933533402912472 -0.6087614290087051 -0.0
  outer loop
    vertex 17.092214226356216 319.0922142263562 82.49999999999999
    vertex 17.78717351497388 318.186525648338 79.49999999999999
    vertex 17.78717351497388 318.186525648338 82.49999999999999
  endloop
endfacet
facet normal -0.7933533402912472 -0.6087614290087051 -0.0
  outer loop
    vertex 17.78717351497388 318.186525648338 79.49999999999999
    vertex 17.092214226356216 319.0922142263562 82.49999999999999
    vertex 17.092214226356216 319.0922142263562 79.49999999999999
  endloop
endfacet
facet normal 0.0 0.0 1.0
  outer loop
    vertex 9.775956812853781 314.86817103921 79.49999999999999
    vertex 9.775956812853789 317.13182896079 79.49999999999999
    vertex 9.626948703324032 316.0 79.49999999999999
  endloop
endfacet
facet normal 0.0 0.0 1.0
  outer loop
    vertex 9.775956812853789 317.13182896079 79.49999999999999
    vertex 9.775956812853781 314.86817103921 79.49999999999999
    vertex 10.212826485026126 313.813474351662 79.49999999999999
  endloop
endfacet
facet normal 0.0 0.0 1.0
  outer loop
    vertex 9.775956812853789 317.13182896079 79.49999999999999
    vertex 10.212826485026126 313.813474351662 79.49999999999999
    vertex 10.21282648502614 318.18652564833803 79.49999999999999
  endloop
endfacet
facet normal 0.0 0.0 1.0
  outer loop
    vertex 10.21282648502614 318.18652564833803 79.49999999999999
    vertex 10.212826485026126 313.813474351662 79.49999999999999
    vertex 10.500000000000004 316.0 79.49999999999999
  endloop
endfacet
facet normal 0.0 0.0 1.0
  outer loop
    vertex 10.500000000000004 316.0 79.49999999999999
    vertex 10.212826485026126 313.813474351662 79.49999999999999
    vertex 10.619259607988264 315.09413334214116 79.49999999999999
  endloop
endfacet
facet normal 0.0 0.0 1.0
  outer loop
    vertex 10.619259607988264 315.09413334214116 79.49999999999999
    vertex 10.212826485026126 313.813474351662 79.49999999999999
    vertex 10.907785773643791 312.9077857736438 79.49999999999999
  endloop
endfacet
facet normal 0.0 0.0 1.0
  outer loop
    vertex 10.619259607988264 315.09413334214116 79.49999999999999
    vertex 10.907785773643791 312.9077857736438 79.49999999999999
    vertex 10.968911086754469 314.25 79.49999999999999
  endloop
endfacet
facet normal 0.0 0.0 1.0
  outer loop
    vertex 10.968911086754469 314.25 79.49999999999999
    vertex 10.907785773643791 312.9077857736438 79.49999999999999
    vertex 11.813474351662006 312.21282648502614 79.49999999999999
  endloop
endfacet
facet normal 0.0 0.0 1.0
  outer loop
    vertex 10.968911086754469 314.25 79.49999999999999
    vertex 11.813474351662006 312.21282648502614 79.49999999999999
    vertex 11.525126265847087 313.5251262658471 79.49999999999999
  endloop
endfacet
facet normal 0.0 0.0 1.0
  outer loop
    vertex 11.525126265847087 313.5251262658471 79.49999999999999
    vertex 11.813474351662006 312.21282648502614 79.49999999999999
    vertex 12.250000000000005 312.9689110867545 79.49999999999999
  endloop
endfacet
facet normal 0.0 0.0 1.0
  outer loop
    vertex 12.250000000000005 312.9689110867545 79.49999999999999
    vertex 11.813474351662006 312.21282648502614 79.49999999999999
    vertex 12.868171039209972 311.7759568128538 79.49999999999999
  endloop
endfacet
facet normal 0.0 0.0 1.0
  outer loop
    vertex 12.250000000000005 312.9689110867545 79.49999999999999
    vertex 12.868171039209972 311.7759568128538 79.49999999999999
    vertex 13.09413334214118 312.6192596079883 79.49999999999999
  endloop
endfacet
facet normal 0.0 0.0 1.0
  outer loop
    vertex 13.09413334214118 312.6192596079883 79.49999999999999
    vertex 12.868171039209972 311.7759568128538 79.49999999999999
    vertex 13.999999999999986 311.62694870332405 79.49999999999999
  endloop
endfacet
facet normal 0.0 0.0 1.0
  outer loop
    vertex 13.09413334214118 312.6192596079883 79.49999999999999
    vertex 13.999999999999986 311.62694870332405 79.49999999999999
    vertex 14.000000000000002 312.5 79.49999999999999
  endloop
endfacet
facet normal 0.0 0.0 1.0
  outer loop
    vertex 14.000000000000002 312.5 79.49999999999999
    vertex 13.999999999999986 311.62694870332405 79.49999999999999
    vertex 15.131828960790001 311.7759568128538 79.49999999999999
  endloop
endfacet
facet normal 0.0 0.0 1.0
  outer loop
    vertex 14.000000000000002 312.5 79.49999999999999
    vertex 15.131828960790001 311.7759568128538 79.49999999999999
    vertex 14.905866657858827 312.6192596079883 79.49999999999999
  endloop
endfacet
facet normal 0.0 0.0 1.0
  outer loop
    vertex 14.905866657858827 312.6192596079883 79.49999999999999
    vertex 15.131828960790001 311.7759568128538 79.49999999999999
    vertex 15.750000000000005 312.9689110867545 79.49999999999999
  endloop
endfacet
facet normal 0.0 0.0 1.0
  outer loop
    vertex 15.750000000000005 312.9689110867545 79.49999999999999
    vertex 15.131828960790001 311.7759568128538 79.49999999999999
    vertex 16.186525648337973 312.21282648502614 79.49999999999999
  endloop
endfacet
facet normal 0.0 0.0 1.0
  outer loop
    vertex 15.750000000000005 312.9689110867545 79.49999999999999
    vertex 16.186525648337973 312.21282648502614 79.49999999999999
    vertex 16.47487373415292 313.5251262658471 79.49999999999999
  endloop
endfacet
facet normal 0.0 0.0 1.0
  outer loop
    vertex 16.47487373415292 313.5251262658471 79.49999999999999
    vertex 16.186525648337973 312.21282648502614 79.49999999999999
    vertex 17.092214226356194 312.9077857736438 79.49999999999999
  endloop
endfacet
facet normal 0.0 0.0 1.0
  outer loop
    vertex 16.47487373415292 313.5251262658471 79.49999999999999
    vertex 17.092214226356194 312.9077857736438 79.49999999999999
    vertex 17.031088913245537 314.25 79.49999999999999
  endloop
endfacet
facet normal 0.0 0.0 1.0
  outer loop
    vertex 17.031088913245537 314.25 79.49999999999999
    vertex 17.092214226356194 312.9077857736438 79.49999999999999
    vertex 17.380740392011745 315.09413334214116 79.49999999999999
  endloop
endfacet
facet normal 0.0 0.0 1.0
  outer loop
    vertex 17.380740392011745 315.09413334214116 79.49999999999999
    vertex 17.092214226356194 312.9077857736438 79.49999999999999
    vertex 17.787173514973862 313.813474351662 79.49999999999999
  endloop
endfacet
facet normal 0.0 0.0 1.0
  outer loop
    vertex 17.380740392011745 315.09413334214116 79.49999999999999
    vertex 17.787173514973862 313.813474351662 79.49999999999999
    vertex 17.5 316.0 79.49999999999999
  endloop
endfacet
facet normal 0.0 0.0 1.0
  outer loop
    vertex 10.21282648502614 318.18652564833803 79.49999999999999
    vertex 10.619259607988264 316.90586665785884 79.49999999999999
    vertex 10.907785773643809 319.0922142263562 79.49999999999999
  endloop
endfacet
facet normal 0.0 0.0 1.0
  outer loop
    vertex 10.619259607988264 316.90586665785884 79.49999999999999
    vertex 10.21282648502614 318.18652564833803 79.49999999999999
    vertex 10.500000000000004 316.0 79.49999999999999
  endloop
endfacet
facet normal 0.0 0.0 1.0
  outer loop
    vertex 10.907785773643809 319.0922142263562 79.49999999999999
    vertex 10.619259607988264 316.90586665785884 79.49999999999999
    vertex 10.968911086754467 317.75 79.49999999999999
  endloop
endfacet
facet normal 0.0 0.0 1.0
  outer loop
    vertex 10.907785773643809 319.0922142263562 79.49999999999999
    vertex 10.968911086754467 317.75 79.49999999999999
    vertex 11.81347435166203 319.78717351497386 79.49999999999999
  endloop
endfacet
facet normal 0.0 0.0 1.0
  outer loop
    vertex 11.81347435166203 319.78717351497386 79.49999999999999
    vertex 10.968911086754467 317.75 79.49999999999999
    vertex 11.525126265847085 318.4748737341529 79.49999999999999
  endloop
endfacet
facet normal 0.0 0.0 1.0
  outer loop
    vertex 11.81347435166203 319.78717351497386 79.49999999999999
    vertex 11.525126265847085 318.4748737341529 79.49999999999999
    vertex 12.250000000000004 319.0310889132455 79.49999999999999
  endloop
endfacet
facet normal 0.0 0.0 1.0
  outer loop
    vertex 11.81347435166203 319.78717351497386 79.49999999999999
    vertex 12.250000000000004 319.0310889132455 79.49999999999999
    vertex 12.86817103921 320.22404318714626 79.49999999999999
  endloop
endfacet
facet normal 0.0 0.0 1.0
  outer loop
    vertex 12.86817103921 320.22404318714626 79.49999999999999
    vertex 12.250000000000004 319.0310889132455 79.49999999999999
    vertex 13.094133342141179 319.3807403920117 79.49999999999999
  endloop
endfacet
facet normal 0.0 0.0 1.0
  outer loop
    vertex 12.86817103921 320.22404318714626 79.49999999999999
    vertex 13.094133342141179 319.3807403920117 79.49999999999999
    vertex 14.000000000000016 320.37305129667595 79.49999999999999
  endloop
endfacet
facet normal 0.0 0.0 1.0
  outer loop
    vertex 14.000000000000016 320.37305129667595 79.49999999999999
    vertex 13.094133342141179 319.3807403920117 79.49999999999999
    vertex 14.000000000000002 319.5 79.49999999999999
  endloop
endfacet
facet normal 0.0 0.0 1.0
  outer loop
    vertex 14.000000000000016 320.37305129667595 79.49999999999999
    vertex 14.000000000000002 319.5 79.49999999999999
    vertex 14.905866657858823 319.3807403920117 79.49999999999999
  endloop
endfacet
facet normal 0.0 0.0 1.0
  outer loop
    vertex 14.000000000000016 320.37305129667595 79.49999999999999
    vertex 14.905866657858823 319.3807403920117 79.49999999999999
    vertex 15.131828960790033 320.2240431871462 79.49999999999999
  endloop
endfacet
facet normal 0.0 0.0 1.0
  outer loop
    vertex 15.131828960790033 320.2240431871462 79.49999999999999
    vertex 14.905866657858823 319.3807403920117 79.49999999999999
    vertex 15.750000000000002 319.0310889132455 79.49999999999999
  endloop
endfacet
facet normal 0.0 0.0 1.0
  outer loop
    vertex 15.131828960790033 320.2240431871462 79.49999999999999
    vertex 15.750000000000002 319.0310889132455 79.49999999999999
    vertex 16.186525648337998 319.78717351497386 79.49999999999999
  endloop
endfacet
facet normal 0.0 0.0 1.0
  outer loop
    vertex 16.186525648337998 319.78717351497386 79.49999999999999
    vertex 15.750000000000002 319.0310889132455 79.49999999999999
    vertex 16.47487373415292 318.4748737341529 79.49999999999999
  endloop
endfacet
facet normal 0.0 0.0 1.0
  outer loop
    vertex 16.186525648337998 319.78717351497386 79.49999999999999
    vertex 16.47487373415292 318.4748737341529 79.49999999999999
    vertex 17.092214226356216 319.0922142263562 79.49999999999999
  endloop
endfacet
facet normal 0.0 0.0 1.0
  outer loop
    vertex 17.092214226356216 319.0922142263562 79.49999999999999
    vertex 16.47487373415292 318.4748737341529 79.49999999999999
    vertex 17.031088913245537 317.75 79.49999999999999
  endloop
endfacet
facet normal 0.0 0.0 1.0
  outer loop
    vertex 17.092214226356216 319.0922142263562 79.49999999999999
    vertex 17.031088913245537 317.75 79.49999999999999
    vertex 17.38074039201174 316.90586665785884 79.49999999999999
  endloop
endfacet
facet normal 0.0 0.0 1.0
  outer loop
    vertex 17.092214226356216 319.0922142263562 79.49999999999999
    vertex 17.38074039201174 316.90586665785884 79.49999999999999
    vertex 17.78717351497388 318.186525648338 79.49999999999999
  endloop
endfacet
facet normal 0.0 0.0 1.0
  outer loop
    vertex 17.78717351497388 318.186525648338 79.49999999999999
    vertex 17.38074039201174 316.90586665785884 79.49999999999999
    vertex 17.5 316.0 79.49999999999999
  endloop
endfacet
facet normal 0.0 0.0 1.0
  outer loop
    vertex 17.78717351497388 318.186525648338 79.49999999999999
    vertex 17.5 316.0 79.49999999999999
    vertex 17.787173514973862 313.813474351662 79.49999999999999
  endloop
endfacet
facet normal 0.0 0.0 1.0
  outer loop
    vertex 17.78717351497388 318.186525648338 79.49999999999999
    vertex 17.787173514973862 313.813474351662 79.49999999999999
    vertex 18.22404318714622 314.86817103921 79.49999999999999
  endloop
endfacet
facet normal 0.0 0.0 1.0
  outer loop
    vertex 17.78717351497388 318.186525648338 79.49999999999999
    vertex 18.22404318714622 314.86817103921 79.49999999999999
    vertex 18.224043187146226 317.13182896079 79.49999999999999
  endloop
endfacet
facet normal 0.0 0.0 1.0
  outer loop
    vertex 18.224043187146226 317.13182896079 79.49999999999999
    vertex 18.22404318714622 314.86817103921 79.49999999999999
    vertex 18.37305129667597 316.0 79.49999999999999
  endloop
endfacet
facet normal 0.9238795325113079 -0.3826834323650386 4.687733471541908e-15
  outer loop
    vertex 15.931851652578146 315.4823619097951 78.22639562912082
    vertex 15.732050807568887 315.00000000000006 79.49999999999999
    vertex 15.732050807568887 315.0 78.25469303199174
  endloop
endfacet
facet normal 0.9238795325113079 -0.3826834323650386 4.687733471541908e-15
  outer loop
    vertex 15.732050807568887 315.00000000000006 79.49999999999999
    vertex 15.931851652578146 315.4823619097951 78.22639562912082
    vertex 15.931851652578152 315.4823619097951 79.49999999999999
  endloop
endfacet
facet normal -0.9238795325113084 -0.382683432365038 -3.711278524788667e-14
  outer loop
    vertex 12.267949192431017 315.0000000000001 79.49999999999999
    vertex 12.068148347421852 315.48236190979503 78.2263956291208
    vertex 12.267949192431152 314.99999999999994 78.25469303199172
  endloop
endfacet
facet normal -0.9238795325113084 -0.382683432365038 -3.711278524788667e-14
  outer loop
    vertex 12.068148347421852 315.48236190979503 78.2263956291208
    vertex 12.267949192431017 315.0000000000001 79.49999999999999
    vertex 12.06814834742183 315.48236190979503 79.49999999999999
  endloop
endfacet
facet normal 0.9914448613738035 0.13052619222010498 -2.573663148774099e-15
  outer loop
    vertex 15.93185165257814 316.51763809020497 78.2263956291208
    vertex 16.000000000000014 316.0000000000001 79.49999999999999
    vertex 16.000000000000004 316.00000000000006 78.2167439119727
  endloop
endfacet
facet normal 0.9914448613738035 0.13052619222010498 -2.573663148774099e-15
  outer loop
    vertex 16.000000000000014 316.0000000000001 79.49999999999999
    vertex 15.93185165257814 316.51763809020497 78.2263956291208
    vertex 15.931851652578118 316.5176380902051 79.49999999999999
  endloop
endfacet
facet normal -0.9238795325113023 0.3826834323650525 -4.1551686872387276e-15
  outer loop
    vertex 12.06814834742187 316.5176380902051 79.49999999999999
    vertex 12.267949192431063 316.99999999999994 78.25469303199174
    vertex 12.068148347421847 316.5176380902049 78.2263956291208
  endloop
endfacet
facet normal -0.9238795325113023 0.3826834323650525 -4.1551686872387276e-15
  outer loop
    vertex 12.267949192431063 316.99999999999994 78.25469303199174
    vertex 12.06814834742187 316.5176380902051 79.49999999999999
    vertex 12.267949192431198 317.0000000000001 79.49999999999999
  endloop
endfacet
facet normal -0.9914448613738092 0.1305261922200619 1.1463835172617903e-15
  outer loop
    vertex 12.000000000000012 316.0000000000001 79.49999999999999
    vertex 12.068148347421847 316.5176380902049 78.2263956291208
    vertex 11.999999999999979 315.9999999999999 78.21674391197267
  endloop
endfacet
facet normal -0.9914448613738092 0.1305261922200619 1.1463835172617903e-15
  outer loop
    vertex 12.068148347421847 316.5176380902049 78.2263956291208
    vertex 12.000000000000012 316.0000000000001 79.49999999999999
    vertex 12.06814834742187 316.5176380902051 79.49999999999999
  endloop
endfacet
facet normal -0.14022863839594782 7.33421102800844e-15 -0.9901191488773554
  outer loop
    vertex 17.355373952340226 321.9999999999999 78.02478495019574
    vertex 13.999999999999941 318.0 78.49999999999999
    vertex 13.999999999999885 321.9999999999999 78.50000000000001
  endloop
endfacet
facet normal -0.14022863839594782 7.33421102800844e-15 -0.9901191488773554
  outer loop
    vertex 13.999999999999941 318.0 78.49999999999999
    vertex 17.355373952340226 321.9999999999999 78.02478495019574
    vertex 14.517638090205036 317.93185165257813 78.42668792977727
  endloop
endfacet
facet normal -0.14022863839594782 7.33421102800844e-15 -0.9901191488773554
  outer loop
    vertex 14.517638090205036 317.93185165257813 78.42668792977727
    vertex 17.355373952340226 321.9999999999999 78.02478495019574
    vertex 15.000000000000021 317.7320508075689 78.35837195598633
  endloop
endfacet
facet normal -0.14022863839594782 7.33421102800844e-15 -0.9901191488773554
  outer loop
    vertex 15.000000000000021 317.7320508075689 78.35837195598633
    vertex 17.355373952340226 321.9999999999999 78.02478495019574
    vertex 15.414213562373119 317.4142135623731 78.29970769934351
  endloop
endfacet
facet normal -0.14022863839594782 7.33421102800844e-15 -0.9901191488773554
  outer loop
    vertex 15.414213562373119 317.4142135623731 78.29970769934351
    vertex 17.355373952340226 321.9999999999999 78.02478495019574
    vertex 15.732050807568909 316.99999999999994 78.25469303199175
  endloop
endfacet
facet normal -0.14022863839594782 7.33421102800844e-15 -0.9901191488773554
  outer loop
    vertex 15.732050807568909 316.99999999999994 78.25469303199175
    vertex 17.355373952340226 321.9999999999999 78.02478495019574
    vertex 15.93185165257814 316.51763809020497 78.2263956291208
  endloop
endfacet
facet normal -0.14022863839594782 7.33421102800844e-15 -0.9901191488773554
  outer loop
    vertex 15.93185165257814 316.51763809020497 78.2263956291208
    vertex 17.355373952340226 321.9999999999999 78.02478495019574
    vertex 16.000000000000004 316.00000000000006 78.2167439119727
  endloop
endfacet
facet normal -0.14022863839594782 7.33421102800844e-15 -0.9901191488773554
  outer loop
    vertex 16.000000000000004 316.00000000000006 78.2167439119727
    vertex 17.355373952340226 321.9999999999999 78.02478495019574
    vertex 17.35537395234021 185.99999999999994 78.02478495019474
  endloop
endfacet
facet normal -0.14022863839594782 7.33421102800844e-15 -0.9901191488773554
  outer loop
    vertex 13.999999999999941 314.0 78.49999999999996
    vertex 17.35537395234021 185.99999999999994 78.02478495019474
    vertex 13.999999999999865 185.99999999999994 78.49999999999902
  endloop
endfacet
facet normal -0.14022863839594782 7.33421102800844e-15 -0.9901191488773554
  outer loop
    vertex 17.35537395234021 185.99999999999994 78.02478495019474
    vertex 13.999999999999941 314.0 78.49999999999996
    vertex 14.517638090205045 314.06814834742187 78.42668792977724
  endloop
endfacet
facet normal -0.14022863839594782 7.33421102800844e-15 -0.9901191488773554
  outer loop
    vertex 17.35537395234021 185.99999999999994 78.02478495019474
    vertex 14.517638090205045 314.06814834742187 78.42668792977724
    vertex 14.999999999999998 314.26794919243116 78.35837195598633
  endloop
endfacet
facet normal -0.14022863839594782 7.33421102800844e-15 -0.9901191488773554
  outer loop
    vertex 17.35537395234021 185.99999999999994 78.02478495019474
    vertex 14.999999999999998 314.26794919243116 78.35837195598633
    vertex 15.414213562373073 314.5857864376269 78.29970769934349
  endloop
endfacet
facet normal -0.14022863839594782 7.33421102800844e-15 -0.9901191488773554
  outer loop
    vertex 17.35537395234021 185.99999999999994 78.02478495019474
    vertex 15.414213562373073 314.5857864376269 78.29970769934349
    vertex 15.732050807568887 315.0 78.25469303199174
  endloop
endfacet
facet normal -0.14022863839594782 7.33421102800844e-15 -0.9901191488773554
  outer loop
    vertex 17.35537395234021 185.99999999999994 78.02478495019474
    vertex 15.732050807568887 315.0 78.25469303199174
    vertex 15.931851652578146 315.4823619097951 78.22639562912082
  endloop
endfacet
facet normal -0.14022863839594782 7.33421102800844e-15 -0.9901191488773554
  outer loop
    vertex 17.35537395234021 185.99999999999994 78.02478495019474
    vertex 15.931851652578146 315.4823619097951 78.22639562912082
    vertex 16.000000000000004 316.00000000000006 78.2167439119727
  endloop
endfacet
facet normal -0.9914448613738118 -0.13052619222004114 1.6018288471482e-14
  outer loop
    vertex 12.000000000000012 316.0000000000001 79.49999999999999
    vertex 12.068148347421852 315.48236190979503 78.2263956291208
    vertex 12.06814834742183 315.48236190979503 79.49999999999999
  endloop
endfacet
facet normal -0.9914448613738118 -0.13052619222004114 1.6018288471482e-14
  outer loop
    vertex 12.068148347421852 315.48236190979503 78.2263956291208
    vertex 12.000000000000012 316.0000000000001 79.49999999999999
    vertex 11.999999999999979 315.9999999999999 78.21674391197267
  endloop
endfacet
facet normal 1.4006899082121755e-26 -1.4698007121158675e-14 -1.0
  outer loop
    vertex 13.999999999999865 185.99999999999994 78.49999999999902
    vertex 12.75 164.0 78.49999999999999
    vertex 12.75 186.0 78.49999999999999
  endloop
endfacet
facet normal 1.4006899082121755e-26 -1.4698007121158675e-14 -1.0
  outer loop
    vertex 12.75 164.0 78.49999999999999
    vertex 13.999999999999865 185.99999999999994 78.49999999999902
    vertex 15.25 164.0 78.49999999999999
  endloop
endfacet
facet normal 1.4006899082121755e-26 -1.4698007121158675e-14 -1.0
  outer loop
    vertex 15.25 164.0 78.49999999999999
    vertex 13.999999999999865 185.99999999999994 78.49999999999902
    vertex 15.25 186.0 78.49999999999999
  endloop
endfacet
endsolid Red Ryder 3-8 Dovetail Rail - 05-08-2021  - final
